
<!-- Generator: visioncortex VTracer 0.6.4 -->
<svg version="1.1" xmlns="http://www.w3.org/2000/svg" viewBox="0 0 1050 431" preserveAspectRatio="xMidYMid meet">
<path d="M0 0 C10.249 0.425 20.493 0.503 30.749 0.568 C49.021 0.694 67.278 1.076 85.541 1.63 C103.236 2.166 120.926 2.574 138.626 2.819 C139.725 2.834 140.824 2.85 141.956 2.865 C147.472 2.941 152.987 3.014 158.502 3.087 C203.947 3.684 249.374 4.701 294.803 6.005 C296.162 52.387 297.197 98.766 297.816 145.164 C297.89 150.676 297.966 156.188 298.044 161.7 C298.067 163.345 298.067 163.345 298.091 165.024 C298.346 182.651 298.81 200.265 299.355 217.885 C299.912 236.047 300.236 254.203 300.354 272.374 C300.427 282.552 300.6 292.705 301.041 302.874 C302.7 342.367 302.188 378.137 274.136 408.728 C250.759 433.248 225.726 442.858 192.21 443.779 C180.692 443.995 169.202 443.614 157.696 443.114 C147.479 442.682 137.266 442.603 127.041 442.536 C108.825 442.408 90.624 442.02 72.417 441.456 C54.778 440.911 37.143 440.495 19.498 440.246 C18.402 440.231 17.306 440.215 16.178 440.199 C10.678 440.122 5.179 440.048 -0.32 439.974 C-45.623 439.367 -90.909 438.332 -136.197 437.005 C-137.532 390.479 -138.55 343.955 -139.159 297.413 C-139.231 291.885 -139.306 286.357 -139.383 280.829 C-139.398 279.728 -139.413 278.628 -139.429 277.494 C-139.68 259.813 -140.136 242.142 -140.672 224.467 C-141.219 206.249 -141.537 188.037 -141.654 169.812 C-141.726 159.602 -141.895 149.417 -142.329 139.216 C-143.938 100.108 -143.762 64.06 -115.972 33.698 C-83.19 -0.723 -44.997 -1.915 0 0 Z " fill="#FEFEFE" transform="translate(136.19686375558376,-6.0052739828825)"/>
<path d="M0 0 C32.278 -0.062 64.556 -0.124 97.812 -0.188 C107.997 -0.215 118.182 -0.242 128.675 -0.27 C141.13 -0.284 141.13 -0.284 146.965 -0.286 C151.032 -0.289 155.099 -0.3 159.166 -0.317 C164.361 -0.337 169.556 -0.343 174.752 -0.339 C176.654 -0.34 178.556 -0.346 180.458 -0.358 C190.078 -0.414 198.838 -0.352 208 3 C209.082 3.353 210.163 3.706 211.277 4.07 C228.977 11.088 240.437 23.959 248 41 C253.638 54.802 252.957 72.953 247.531 86.684 C240.026 102.939 229.442 114.629 213 122 C208.416 123.66 203.75 124.903 199 126 C199.955 126.291 200.91 126.583 201.895 126.883 C221.882 133.139 236.057 143.42 246 162 C247.589 165.61 248.92 169.208 250 173 C250.174 173.606 250.347 174.212 250.526 174.836 C254.121 191.254 250.782 209.123 241.973 223.188 C231.889 237.564 217.711 247.853 200.416 251.582 C196.73 252.22 193.134 252.27 189.401 252.241 C188.587 252.242 187.772 252.244 186.933 252.246 C184.223 252.249 181.513 252.238 178.802 252.227 C176.819 252.226 174.835 252.227 172.852 252.228 C167.557 252.228 162.262 252.217 156.966 252.203 C151.991 252.191 147.016 252.191 142.041 252.189 C127.507 252.179 112.972 252.151 98.438 252.125 C65.953 252.084 33.469 252.043 0 252 C0 168.84 0 85.68 0 0 Z " fill="#000000" transform="translate(119,55)"/>
<path d="M0 0 C12.169 -0.062 24.337 -0.124 36.875 -0.188 C42.612 -0.228 42.612 -0.228 48.464 -0.27 C53.18 -0.284 53.18 -0.284 55.396 -0.286 C56.925 -0.291 58.454 -0.301 59.982 -0.317 C73.667 -0.447 86.54 0.718 96.855 10.816 C104.081 19.648 104.933 29.938 104 41 C102.843 47.538 100.001 52.599 95 57 C92.125 58.438 92.125 58.438 90 59 C90 59.66 90 60.32 90 61 C91.268 61.278 91.268 61.278 92.562 61.562 C99.306 64.382 103.23 69.608 106.273 76.105 C109.923 85.621 109.27 98.371 105.258 107.645 C99.864 117.745 92.514 124.645 81.613 128.273 C76.518 129.69 71.944 130.123 66.639 130.114 C65.538 130.114 65.538 130.114 64.415 130.114 C62.051 130.113 59.688 130.106 57.324 130.098 C55.86 130.096 54.396 130.095 52.931 130.095 C47.517 130.089 42.102 130.075 36.688 130.062 C24.581 130.042 12.474 130.021 0 130 C0 87.1 0 44.2 0 0 Z M27 23 C27 32.24 27 41.48 27 51 C31.214 51.046 35.427 51.086 39.64 51.11 C41.069 51.12 42.497 51.133 43.926 51.151 C60.551 51.838 60.551 51.838 75 45 C77.509 41.182 77.167 37.52 76.535 33.152 C75.733 29.926 74.469 28.202 72 26 C62.751 21.375 49.811 22.867 39.75 22.938 C35.543 22.958 31.335 22.979 27 23 Z M27 73 C27 84.22 27 95.44 27 107 C34.301 107.062 34.301 107.062 41.75 107.125 C43.259 107.143 44.768 107.161 46.323 107.18 C62.219 107.635 62.219 107.635 76 101 C79.412 96.882 80.153 92.241 80 87 C78.264 81.427 76.013 77.683 70.875 74.812 C61.556 72.179 51.465 72.88 41.875 72.938 C34.512 72.968 34.512 72.968 27 73 Z " fill="#FFFFFF" transform="translate(486,56)"/>
<path d="M0 0 C8.58 0 17.16 0 26 0 C30.499 11.247 30.499 11.247 32.191 16.287 C32.573 17.419 32.955 18.551 33.348 19.717 C33.749 20.914 34.15 22.111 34.562 23.344 C34.995 24.629 35.428 25.913 35.861 27.198 C36.774 29.904 37.684 32.611 38.594 35.318 C40.944 42.311 43.305 49.3 45.668 56.289 C46.016 57.318 46.016 57.318 46.371 58.367 C51.759 74.3 57.31 90.173 63 106 C63.182 105.452 63.364 104.904 63.551 104.34 C71.545 80.265 79.55 56.193 87.75 32.188 C88.175 30.942 88.175 30.942 88.609 29.671 C91.995 19.752 95.452 9.862 99 0 C107.58 0 116.16 0 125 0 C125 42.9 125 85.8 125 130 C119.39 130 113.78 130 108 130 C107.67 96.34 107.34 62.68 107 28 C104.484 35.569 101.967 43.139 99.375 50.938 C93.985 67.121 88.578 83.299 83.079 99.446 C82.49 101.174 81.903 102.902 81.316 104.631 C78.413 113.179 75.468 121.661 72 130 C65.73 130 59.46 130 53 130 C44.727 106.478 36.56 82.929 28.746 59.25 C28.471 58.421 28.197 57.592 27.915 56.737 C27.418 55.236 26.924 53.734 26.431 52.231 C23.748 44.106 20.85 36.075 18 28 C18 61.66 18 95.32 18 130 C12.06 130 6.12 130 0 130 C0 87.1 0 44.2 0 0 Z " fill="#FFFFFF" transform="translate(490,206)"/>
<path d="M0 0 C9.82 7.116 16.09 17.676 17.996 29.602 C18.987 36.91 19.25 43.962 19.25 51.375 C-3.19 51.375 -25.63 51.375 -48.75 51.375 C-46.145 62.987 -46.145 62.987 -38.375 70.75 C-32.057 73.571 -23.951 73.743 -17.398 71.609 C-14.783 70.207 -13.009 68.801 -11.462 66.259 C-9.75 64.375 -9.75 64.375 -6.931 63.921 C-5.258 63.952 -5.258 63.952 -3.551 63.984 C-2.342 63.997 -1.134 64.01 0.111 64.023 C1.374 64.057 2.637 64.09 3.938 64.125 C5.212 64.143 6.486 64.161 7.799 64.18 C10.95 64.227 14.1 64.293 17.25 64.375 C16.175 74.568 10.101 81.999 2.25 88.375 C-6.975 94.162 -15.917 95.724 -26.625 95.688 C-27.554 95.704 -28.484 95.72 -29.441 95.736 C-41.996 95.745 -53.747 91.285 -63.062 82.75 C-74.548 70.391 -75.347 55.073 -75.059 39.098 C-74.498 24.97 -69.797 12.892 -59.5 3 C-43.312 -10.523 -17.655 -10.462 0 0 Z M-43.242 21.176 C-46.473 25.876 -46.878 28.271 -47.75 34.375 C-34.55 34.375 -21.35 34.375 -7.75 34.375 C-9.1 26.459 -9.1 26.459 -13.062 20.938 C-13.636 20.299 -14.21 19.661 -14.801 19.004 C-19.854 14.781 -25.266 14.942 -31.586 15.07 C-36.83 15.575 -39.79 17.01 -43.242 21.176 Z " fill="#FFFFFF" transform="translate(964.75,93.625)"/>
<path d="M0 0 C5.09 3.677 8.032 8.346 10 14.25 C10.111 16.001 10.166 17.755 10.189 19.509 C10.206 20.585 10.223 21.661 10.24 22.769 C10.254 23.934 10.267 25.1 10.281 26.301 C10.3 27.506 10.318 28.712 10.337 29.954 C10.396 33.823 10.449 37.693 10.5 41.562 C10.552 45.393 10.605 49.223 10.663 53.053 C10.699 55.436 10.732 57.82 10.76 60.203 C10.81 63.553 10.896 66.901 11 70.25 C11.033 71.509 11.066 72.768 11.1 74.065 C11.155 75.312 11.211 76.559 11.268 77.844 C11.311 78.976 11.355 80.107 11.401 81.272 C12.117 84.834 13.421 85.809 16 88.25 C16 89.57 16 90.89 16 92.25 C6.43 92.25 -3.14 92.25 -13 92.25 C-13.495 87.795 -13.495 87.795 -14 83.25 C-15.017 84.047 -15.017 84.047 -16.055 84.859 C-28.451 94.268 -38.56 96.895 -54 95.25 C-57.523 94.46 -60.071 93.338 -63 91.25 C-63.714 90.752 -64.428 90.255 -65.164 89.742 C-70.263 85.756 -73.601 81.632 -75 75.25 C-76.027 66.243 -76.234 57.004 -71 49.25 C-70.587 48.618 -70.175 47.987 -69.75 47.336 C-61.854 36.793 -48.231 35.309 -36.055 33.508 C-35.207 33.381 -34.359 33.254 -33.486 33.124 C-31.821 32.879 -30.153 32.647 -28.485 32.427 C-24.043 31.792 -20.64 31.079 -17 28.25 C-15.828 25.281 -15.904 23.665 -16.625 20.562 C-18.427 17.532 -19.647 17.268 -23 16.25 C-26.641 15.897 -26.641 15.897 -30.5 15.938 C-32.434 15.912 -32.434 15.912 -34.406 15.887 C-38.338 16.284 -40.027 16.669 -43 19.25 C-44.32 21.89 -45.64 24.53 -47 27.25 C-55.25 27.25 -63.5 27.25 -72 27.25 C-70.956 15.769 -69.375 8.527 -60.883 0.715 C-44.887 -11.73 -16.683 -9.912 0 0 Z M-46.73 56.684 C-49.303 59.857 -49.277 63.297 -49.219 67.25 C-48.896 70.204 -47.874 71.975 -46 74.25 C-41.277 77.168 -36.371 76.938 -31 76.25 C-26.001 74.626 -21.499 72.53 -18.438 68.125 C-16.104 63.457 -15.875 59.676 -15.938 54.562 C-15.942 53.861 -15.947 53.159 -15.951 52.436 C-15.963 50.707 -15.981 48.978 -16 47.25 C-24.664 47.25 -40.13 51.216 -46.73 56.684 Z " fill="#FFFFFF" transform="translate(673,93.75)"/>
<path d="M0 0 C7.266 4.693 11.142 10.144 13.383 18.539 C14.726 26.455 14.509 34.412 14.48 42.414 C14.479 43.95 14.477 45.485 14.476 47.021 C14.472 51.039 14.463 55.056 14.451 59.074 C14.441 63.184 14.437 67.293 14.432 71.402 C14.421 79.448 14.403 87.493 14.383 95.539 C5.473 95.539 -3.437 95.539 -12.617 95.539 C-12.673 88.874 -12.673 88.874 -12.73 82.074 C-12.769 78.511 -12.81 74.948 -12.853 71.385 C-12.897 67.635 -12.937 63.885 -12.964 60.135 C-12.99 56.516 -13.03 52.898 -13.08 49.28 C-13.097 47.906 -13.109 46.532 -13.115 45.158 C-12.905 32.767 -12.905 32.767 -18.033 21.866 C-22.465 18.154 -29.199 19.144 -34.617 19.539 C-39.39 21.158 -41.876 23.329 -44.617 27.539 C-46.286 31.781 -46.88 35.366 -46.936 39.912 C-46.956 41.152 -46.976 42.393 -46.996 43.672 C-47.008 45.01 -47.02 46.349 -47.031 47.688 C-47.05 49.069 -47.07 50.45 -47.09 51.832 C-47.141 55.452 -47.181 59.072 -47.218 62.692 C-47.258 66.392 -47.309 70.093 -47.359 73.793 C-47.457 81.042 -47.537 88.29 -47.617 95.539 C-56.527 95.539 -65.437 95.539 -74.617 95.539 C-74.617 63.529 -74.617 31.519 -74.617 -1.461 C-66.037 -1.461 -57.457 -1.461 -48.617 -1.461 C-48.287 1.839 -47.957 5.139 -47.617 8.539 C-47.04 7.673 -46.462 6.807 -45.867 5.914 C-35.06 -6.555 -14.023 -7.151 0 0 Z " fill="#FFFFFF" transform="translate(871.6171875,90.4609375)"/>
<path d="M0 0 C7.266 4.693 11.142 10.144 13.383 18.539 C14.726 26.455 14.509 34.412 14.48 42.414 C14.479 43.95 14.477 45.485 14.476 47.021 C14.472 51.039 14.463 55.056 14.451 59.074 C14.441 63.184 14.437 67.293 14.432 71.402 C14.421 79.448 14.403 87.493 14.383 95.539 C5.473 95.539 -3.437 95.539 -12.617 95.539 C-12.673 88.874 -12.673 88.874 -12.73 82.074 C-12.769 78.511 -12.81 74.948 -12.853 71.385 C-12.897 67.635 -12.937 63.885 -12.964 60.135 C-12.99 56.516 -13.03 52.898 -13.08 49.28 C-13.097 47.906 -13.109 46.532 -13.115 45.158 C-12.905 32.767 -12.905 32.767 -18.033 21.866 C-22.465 18.154 -29.199 19.144 -34.617 19.539 C-39.39 21.158 -41.876 23.329 -44.617 27.539 C-46.286 31.781 -46.88 35.366 -46.936 39.912 C-46.956 41.152 -46.976 42.393 -46.996 43.672 C-47.008 45.01 -47.02 46.349 -47.031 47.688 C-47.05 49.069 -47.07 50.45 -47.09 51.832 C-47.141 55.452 -47.181 59.072 -47.218 62.692 C-47.258 66.392 -47.309 70.093 -47.359 73.793 C-47.457 81.042 -47.537 88.29 -47.617 95.539 C-56.527 95.539 -65.437 95.539 -74.617 95.539 C-74.617 63.529 -74.617 31.519 -74.617 -1.461 C-66.037 -1.461 -57.457 -1.461 -48.617 -1.461 C-48.287 1.839 -47.957 5.139 -47.617 8.539 C-47.04 7.673 -46.462 6.807 -45.867 5.914 C-35.06 -6.555 -14.023 -7.151 0 0 Z " fill="#FFFFFF" transform="translate(770.6171875,90.4609375)"/>
<path d="M0 0 C5.28 0 10.56 0 16 0 C16 42.9 16 85.8 16 130 C11.05 130 6.1 130 1 130 C0.505 125.545 0.505 125.545 0 121 C-0.534 121.531 -1.067 122.062 -1.617 122.609 C-10.863 131.375 -18.567 133.606 -31.094 133.473 C-37.133 133.251 -41.923 132.46 -47 129 C-47.679 128.576 -48.359 128.152 -49.059 127.715 C-59.251 120.798 -64.985 110.513 -67.785 98.684 C-70.619 82.184 -68.897 64.415 -59.562 50.18 C-53.462 41.67 -47.434 36.423 -37 34 C-25.387 32.689 -14.699 32.857 -5 40 C-3.68 41.32 -2.36 42.64 -1 44 C-0.67 29.48 -0.34 14.96 0 0 Z M-43 56 C-50.673 67.53 -52.634 80.561 -50.25 94.125 C-48.402 102.223 -45.21 109.329 -39 115 C-33.17 118.569 -27.782 119.46 -21 119 C-14.264 117.342 -9.116 114.331 -5.367 108.43 C-1.589 101.439 0.304 94.895 1 87 C1.071 86.254 1.142 85.507 1.215 84.738 C1.672 74.845 -0.459 63.656 -7 56 C-12.119 50.881 -17.309 48.403 -24.438 47.625 C-31.857 48.406 -37.749 50.511 -43 56 Z " fill="#FFFFFF" transform="translate(814,206)"/>
<path d="M0 0 C7.246 3.623 11.639 9.996 14.188 17.5 C15.21 21.602 15.308 25.456 15.301 29.677 C15.301 30.38 15.301 31.083 15.301 31.807 C15.301 34.118 15.293 36.428 15.285 38.738 C15.283 40.345 15.282 41.953 15.281 43.56 C15.277 47.78 15.267 52 15.256 56.22 C15.246 60.53 15.241 64.84 15.236 69.15 C15.226 77.6 15.208 86.05 15.188 94.5 C9.577 94.5 3.967 94.5 -1.812 94.5 C-1.827 92.512 -1.842 90.525 -1.857 88.477 C-1.908 81.887 -1.974 75.297 -2.048 68.707 C-2.093 64.715 -2.132 60.722 -2.159 56.729 C-2.185 52.871 -2.226 49.013 -2.276 45.155 C-2.292 43.688 -2.304 42.221 -2.31 40.754 C-1.982 28.561 -1.982 28.561 -7.193 17.959 C-11.832 13.798 -15.49 13.175 -21.602 13.289 C-28.936 13.989 -34.983 16.918 -39.812 22.5 C-43.951 28.802 -44.904 35.031 -45.018 42.505 C-45.038 43.666 -45.058 44.827 -45.078 46.023 C-45.095 47.261 -45.112 48.498 -45.129 49.773 C-45.15 51.052 -45.17 52.331 -45.192 53.649 C-45.246 57.032 -45.296 60.415 -45.345 63.799 C-45.395 67.258 -45.451 70.717 -45.506 74.176 C-45.613 80.95 -45.714 87.725 -45.812 94.5 C-51.423 94.5 -57.033 94.5 -62.812 94.5 C-62.812 63.15 -62.812 31.8 -62.812 -0.5 C-57.533 -0.5 -52.253 -0.5 -46.812 -0.5 C-46.482 3.46 -46.153 7.42 -45.812 11.5 C-44.864 10.448 -43.915 9.396 -42.938 8.312 C-32.301 -2.389 -14.087 -4.965 0 0 Z " fill="#FFFFFF" transform="translate(723.8125,241.5)"/>
<path d="M0 0 C0 8.58 0 17.16 0 26 C-2.475 26.248 -4.95 26.495 -7.5 26.75 C-15.094 27.643 -20.986 28.668 -26.375 34.625 C-30.24 42.652 -30.319 51.37 -30.414 60.133 C-30.433 61.251 -30.453 62.369 -30.473 63.52 C-30.532 67.055 -30.579 70.59 -30.625 74.125 C-30.663 76.536 -30.702 78.948 -30.742 81.359 C-30.839 87.24 -30.919 93.12 -31 99 C-39.58 99 -48.16 99 -57 99 C-57 66.99 -57 34.98 -57 2 C-48.75 2 -40.5 2 -32 2 C-31.67 6.29 -31.34 10.58 -31 15 C-30.01 13.618 -29.02 12.236 -28 10.812 C-19.969 0.447 -13.228 0 0 0 Z " fill="#FFFFFF" transform="translate(1047,87)"/>
<path d="M0 0 C5.61 0 11.22 0 17 0 C17 31.02 17 62.04 17 94 C11.39 94 5.78 94 0 94 C0 62.98 0 31.96 0 0 Z " fill="#FFFFFF" transform="translate(630,241)"/>
<path d="M0 0 C0.99 0.33 1.98 0.66 3 1 C3.922 3.004 3.922 3.004 4.75 5.562 C7.662 13.331 12.713 18.985 20 23 C22.643 24.108 25.287 25.065 28 26 C28 26.66 28 27.32 28 28 C27.071 28.412 26.141 28.825 25.184 29.25 C12.795 34.948 7.126 41.151 2 54 C1.34 54 0.68 54 0 54 C-0.454 52.805 -0.454 52.805 -0.918 51.586 C-4.78 41.818 -8.507 35.894 -18 31 C-20.643 29.874 -23.276 28.924 -26 28 C-26 27.34 -26 26.68 -26 26 C-24.822 25.563 -24.822 25.563 -23.621 25.117 C-12.284 20.694 -7.378 16.79 -2.164 5.707 C-0.947 2.982 -0.947 2.982 0 0 Z " fill="#FFFFFF" transform="translate(870,206)"/>
<path d="M0 0 C5.61 0 11.22 0 17 0 C17 5.94 17 11.88 17 18 C11.39 18 5.78 18 0 18 C0 12.06 0 6.12 0 0 Z " fill="#FFFFFF" transform="translate(630,206)"/>
</svg>